<svg width="1000" height="1200" viewBox="0 0 1000 1200" fill="none" xmlns="http://www.w3.org/2000/svg">
<rect width="1000" height="1200" fill="white"/>
<path d="M810.412 159.835C803.291 150.654 793.539 145.444 783.303 145.333C783.201 145.333 783.112 145.333 783.023 145.333C772.902 145.333 763.187 150.352 756.029 159.311L752.189 164.108C737.49 182.502 737.299 212.221 751.769 230.917C818.829 317.502 855.779 431.534 855.779 552C855.779 672.481 818.842 786.514 751.769 873.082C737.261 891.794 737.477 921.593 752.24 939.971L756.092 944.768C763.238 953.679 772.927 958.666 783.023 958.666C783.138 958.666 783.252 958.666 783.354 958.666C793.564 958.555 803.304 953.329 810.412 944.18C892.361 838.502 937.5 699.23 937.5 552C937.5 404.785 892.361 265.513 810.412 159.835Z" fill="#EEEEEE"/>
<path d="M741.026 342.159C733.893 332.962 724.115 327.752 713.867 327.657C713.79 327.657 713.701 327.657 713.625 327.657C703.466 327.657 693.726 332.724 686.567 341.73L684.698 344.081C670.063 362.491 669.897 392.147 684.342 410.811C713.727 448.726 729.9 498.682 729.9 551.449C729.9 604.232 713.727 654.188 684.355 692.088C669.897 710.751 670.05 740.407 684.698 758.817L686.567 761.168C693.713 770.174 703.466 775.241 713.625 775.241C713.701 775.241 713.79 775.241 713.867 775.241C724.115 775.162 733.893 769.936 741.026 760.755C784.766 704.35 808.862 630.028 808.862 551.449C808.862 472.886 784.779 398.564 741.026 342.159Z" fill="#EEEEEE"/>
<path d="M133.392 552C133.392 431.55 170.451 317.517 237.745 230.917C252.288 212.221 252.084 182.454 237.286 164.06L233.421 159.263C226.238 150.337 216.517 145.333 206.375 145.333C206.273 145.333 206.159 145.333 206.057 145.333C195.8 145.444 186.015 150.654 178.884 159.835C96.664 265.513 51.3889 404.785 51.3889 552C51.3889 699.23 96.664 838.502 178.897 944.164C186.041 953.345 195.825 958.555 206.082 958.666C206.184 958.666 206.286 958.666 206.388 958.666C216.53 958.666 226.277 953.663 233.446 944.704L237.311 939.891C252.084 921.497 252.288 891.762 237.758 873.066C170.451 786.498 133.392 672.465 133.392 552Z" fill="#EEEEEE"/>
<path d="M304.06 343.97L302.172 341.619C295.002 332.676 285.256 327.657 275.114 327.657C275.012 327.657 274.91 327.657 274.808 327.657C264.551 327.752 254.766 332.978 247.622 342.159C203.75 398.548 179.588 472.87 179.588 551.449C179.588 630.028 203.75 704.366 247.635 760.755C254.766 769.92 264.564 775.13 274.82 775.241C274.922 775.241 275.025 775.241 275.114 775.241C285.256 775.241 295.002 770.238 302.172 761.279L304.06 758.928C318.833 740.534 319.024 710.799 304.506 692.088C275.037 654.172 258.797 604.248 258.797 551.449C258.797 498.682 275.025 448.726 304.506 410.811C319.037 392.099 318.845 362.348 304.06 343.97Z" fill="#EEEEEE"/>
<rect width="1000" height="1200" fill="black" fill-opacity="0.87"/>
<g filter="url(#filter0_i_403_2)">
<path d="M575.288 833.482C545.918 833.482 529.747 826.963 516.182 810.963C502.616 794.607 495.833 771.319 495.833 741.096V645.867C495.833 615.644 502.616 592.533 516.182 576.533C529.747 560.178 549.449 552 575.288 552C601.127 552 620.829 560.178 634.394 576.533C647.96 592.533 654.743 615.644 654.743 645.867V655.704H604.357V642.133C604.357 617.6 595.152 605.333 576.741 605.333C558.331 605.333 549.126 617.6 549.126 642.133V745.363C549.126 769.541 558.331 781.63 576.741 781.63C595.152 781.63 604.357 754.726 604.357 730.548V722.37H577.71V685.333H654.743V726.281C654.743 756.504 647.96 794.607 634.394 810.963C620.829 826.963 599.749 833.482 575.288 833.482Z" fill="#E50914"/>
<path d="M575.288 833.482C545.918 833.482 529.747 826.963 516.182 810.963C502.616 794.607 495.833 771.319 495.833 741.096V645.867C495.833 615.644 502.616 592.533 516.182 576.533C529.747 560.178 549.449 552 575.288 552C601.127 552 620.829 560.178 634.394 576.533C647.96 592.533 654.743 615.644 654.743 645.867V655.704H604.357V642.133C604.357 617.6 595.152 605.333 576.741 605.333C558.331 605.333 549.126 617.6 549.126 642.133V745.363C549.126 769.541 558.331 781.63 576.741 781.63C595.152 781.63 604.357 754.726 604.357 730.548V722.37H577.71V685.333H654.743V726.281C654.743 756.504 647.96 794.607 634.394 810.963C620.829 826.963 599.749 833.482 575.288 833.482Z" fill="#E50914"/>
<path d="M345.833 365.333L491.177 389.778V443.111L399.126 427.555V517.333H472.282V570.667H399.126V667.333L491.177 653.111V708.148L345.833 738.667V365.333Z" fill="#E50914"/>
</g>
<defs>
<filter id="filter0_i_403_2" x="345.833" y="365.333" width="310.909" height="470.148" filterUnits="userSpaceOnUse" color-interpolation-filters="sRGB">
<feFlood flood-opacity="0" result="BackgroundImageFix"/>
<feBlend mode="normal" in="SourceGraphic" in2="BackgroundImageFix" result="shape"/>
<feColorMatrix in="SourceAlpha" type="matrix" values="0 0 0 0 0 0 0 0 0 0 0 0 0 0 0 0 0 0 127 0" result="hardAlpha"/>
<feOffset dx="2" dy="2"/>
<feGaussianBlur stdDeviation="1.5"/>
<feComposite in2="hardAlpha" operator="arithmetic" k2="-1" k3="1"/>
<feColorMatrix type="matrix" values="0 0 0 0 0 0 0 0 0 0 0 0 0 0 0 0 0 0 0.45 0"/>
<feBlend mode="normal" in2="shape" result="effect1_innerShadow_403_2"/>
</filter>
</defs>
</svg>
