<svg width="1280" height="1200" viewBox="0 0 1280 1200" fill="none" xmlns="http://www.w3.org/2000/svg">
<rect width="1280" height="1200" fill="white"/>
<path d="M1037.33 159.835C1028.21 150.654 1015.73 145.444 1002.63 145.333C1002.5 145.333 1002.38 145.333 1002.27 145.333C989.315 145.333 976.88 150.352 967.717 159.311L962.802 164.108C943.988 182.502 943.743 212.221 962.265 230.917C1048.1 317.502 1095.4 431.534 1095.4 552C1095.4 672.481 1048.12 786.514 962.265 873.082C943.694 891.794 943.971 921.593 962.867 939.971L967.798 944.768C976.945 953.679 989.347 958.666 1002.27 958.666C1002.42 958.666 1002.56 958.666 1002.69 958.666C1015.76 958.555 1028.23 953.329 1037.33 944.18C1142.22 838.502 1200 699.23 1200 552C1200 404.785 1142.22 265.513 1037.33 159.835Z" fill="#EEEEEE"/>
<path d="M948.513 342.159C939.383 332.962 926.867 327.752 913.749 327.657C913.651 327.657 913.538 327.657 913.44 327.657C900.436 327.657 887.969 332.724 878.806 341.73L876.413 344.081C857.68 362.491 857.469 392.147 875.958 410.811C913.57 448.726 934.272 498.682 934.272 551.449C934.272 604.232 913.57 654.188 875.974 692.088C857.469 710.751 857.664 740.407 876.413 758.817L878.806 761.168C887.953 770.174 900.436 775.241 913.44 775.241C913.538 775.241 913.651 775.241 913.749 775.241C926.867 775.162 939.383 769.936 948.513 760.755C1004.5 704.35 1035.34 630.028 1035.34 551.449C1035.34 472.886 1004.52 398.564 948.513 342.159Z" fill="#EEEEEE"/>
<path d="M170.742 552C170.742 431.55 218.178 317.517 304.314 230.917C322.929 212.221 322.668 182.454 303.726 164.06L298.778 159.263C289.585 150.337 277.142 145.333 264.161 145.333C264.03 145.333 263.883 145.333 263.752 145.333C250.624 145.444 238.099 150.654 228.971 159.835C123.73 265.513 65.7778 404.785 65.7778 552C65.7778 699.23 123.73 838.502 228.988 944.164C238.132 953.345 250.656 958.555 263.785 958.666C263.916 958.666 264.046 958.666 264.177 958.666C277.159 958.666 289.634 953.663 298.811 944.704L303.759 939.891C322.668 921.497 322.929 891.762 304.33 873.066C218.178 786.498 170.742 672.465 170.742 552Z" fill="#EEEEEE"/>
<path d="M389.196 343.97L386.78 341.619C377.603 332.676 365.127 327.657 352.146 327.657C352.015 327.657 351.884 327.657 351.754 327.657C338.625 327.752 326.101 332.978 316.956 342.159C260.8 398.548 229.873 472.87 229.873 551.449C229.873 630.028 260.8 704.366 316.973 760.755C326.101 769.92 338.641 775.13 351.77 775.241C351.901 775.241 352.031 775.241 352.146 775.241C365.127 775.241 377.603 770.238 386.78 761.279L389.196 758.928C408.106 740.534 408.351 710.799 389.768 692.088C352.048 654.172 331.261 604.248 331.261 551.449C331.261 498.682 352.031 448.726 389.768 410.811C408.367 392.099 408.122 362.348 389.196 343.97Z" fill="#EEEEEE"/>
<rect width="1280" height="1200" fill="black" fill-opacity="0.87"/>
<g filter="url(#filter0_i_403_17)">
<path d="M736.368 833.482C698.774 833.482 678.076 826.963 660.712 810.963C643.348 794.607 634.667 771.319 634.667 741.096V645.867C634.667 615.644 643.348 592.533 660.712 576.533C678.076 560.178 703.295 552 736.368 552C769.442 552 794.661 560.178 812.025 576.533C829.388 592.533 838.07 615.644 838.07 645.867V655.704H773.576V642.133C773.576 617.6 761.794 605.333 738.229 605.333C714.664 605.333 702.881 617.6 702.881 642.133V745.363C702.881 769.541 714.664 781.63 738.229 781.63C761.794 781.63 773.576 754.726 773.576 730.548V722.37H739.469V685.333H838.07V726.281C838.07 756.504 829.388 794.607 812.025 810.963C794.661 826.963 767.678 833.482 736.368 833.482Z" fill="#E50914"/>
<path d="M736.368 833.482C698.774 833.482 678.076 826.963 660.712 810.963C643.348 794.607 634.667 771.319 634.667 741.096V645.867C634.667 615.644 643.348 592.533 660.712 576.533C678.076 560.178 703.295 552 736.368 552C769.442 552 794.661 560.178 812.025 576.533C829.388 592.533 838.07 615.644 838.07 645.867V655.704H773.576V642.133C773.576 617.6 761.794 605.333 738.229 605.333C714.664 605.333 702.881 617.6 702.881 642.133V745.363C702.881 769.541 714.664 781.63 738.229 781.63C761.794 781.63 773.576 754.726 773.576 730.548V722.37H739.469V685.333H838.07V726.281C838.07 756.504 829.388 794.607 812.025 810.963C794.661 826.963 767.678 833.482 736.368 833.482Z" fill="#E50914"/>
<path d="M442.667 365.333L628.706 389.778V443.111L510.881 427.555V517.333H604.521V570.667H510.881V667.333L628.706 653.111V708.148L442.667 738.667V365.333Z" fill="#E50914"/>
</g>
<defs>
<filter id="filter0_i_403_17" x="442.667" y="365.333" width="397.404" height="470.148" filterUnits="userSpaceOnUse" color-interpolation-filters="sRGB">
<feFlood flood-opacity="0" result="BackgroundImageFix"/>
<feBlend mode="normal" in="SourceGraphic" in2="BackgroundImageFix" result="shape"/>
<feColorMatrix in="SourceAlpha" type="matrix" values="0 0 0 0 0 0 0 0 0 0 0 0 0 0 0 0 0 0 127 0" result="hardAlpha"/>
<feOffset dx="2" dy="2"/>
<feGaussianBlur stdDeviation="1.5"/>
<feComposite in2="hardAlpha" operator="arithmetic" k2="-1" k3="1"/>
<feColorMatrix type="matrix" values="0 0 0 0 0 0 0 0 0 0 0 0 0 0 0 0 0 0 0.45 0"/>
<feBlend mode="normal" in2="shape" result="effect1_innerShadow_403_17"/>
</filter>
</defs>
</svg>
